<svg width="838" height="382" viewBox="0 0 838 382" fill="none" xmlns="http://www.w3.org/2000/svg">
<path d="M59 208.5H0V203.5C18 203.5 24.1667 189.833 25 183V31.5C25 11.1 9 6.66667 1 7V1.5H36V183C36 199.126 50.1271 203.335 58.0412 203.5H59V208.5Z" fill="white"/>
<path d="M49 1.5H36V36L99.5 208.5H102.5L166 29V192C164 200.8 150.833 203.667 144.5 204V208.5H214V204C200 204 193.833 196 192.5 192C192.167 141.167 191.5 36.4 191.5 24C191.5 11.6 206.833 8.16667 214.5 8V1.5H165L108.5 160.5L49 1.5Z" fill="white"/>
<path d="M417 208.5H358V203.5C376 203.5 382.167 189.833 383 183V31.5C383 11.1 367 6.66667 359 7V1.5H394V183C394 199.126 408.127 203.335 416.041 203.5H417V208.5Z" fill="white"/>
<path d="M407 1.5H394V36L457.5 208.5H460.5L524 29V192C522 200.8 508.833 203.667 502.5 204V208.5H572V204C558 204 551.833 196 550.5 192C550.167 141.167 549.5 36.4 549.5 24C549.5 11.6 564.833 8.16667 572.5 8V1.5H523L466.5 160.5L407 1.5Z" fill="white"/>
<path d="M325 7.5V2.5H288V209.5L325 208.5V204C307 204 300.833 193.333 300 188V23.5C300 11.5 316.667 7.83333 325 7.5Z" fill="white"/>
<path d="M325 7.5V2.5H288V209.5L325 208.5V204C307 204 300.833 193.333 300 188V23.5C300 11.5 316.667 7.83333 325 7.5Z" fill="white"/>
<path d="M325 7.5V2.5H288V209.5L325 208.5V204C307 204 300.833 193.333 300 188V23.5C300 11.5 316.667 7.83333 325 7.5Z" fill="white"/>
<path d="M251 7.5V2.5H288V209.5L251 208.5V204C269 204 275.167 193.333 276 188V23.5C276 11.5 259.333 7.83333 251 7.5Z" fill="white"/>
<path d="M251 7.5V2.5H288V209.5L251 208.5V204C269 204 275.167 193.333 276 188V23.5C276 11.5 259.333 7.83333 251 7.5Z" fill="white"/>
<path d="M251 7.5V2.5H288V209.5L251 208.5V204C269 204 275.167 193.333 276 188V23.5C276 11.5 259.333 7.83333 251 7.5Z" fill="white"/>
<path fill-rule="evenodd" clip-rule="evenodd" d="M601 208.5V203.5C605 203.833 614.2 201.3 619 188.5C623.8 175.7 664 58.5 683.5 1.5H688L754.5 190.5C756.667 195 763.1 204 771.5 204V208.5H709V204C714.167 203.667 724.8 202.2 726 199C726.5 197 727.2 191.2 726 184L712.5 142.5H646L633 184.5V195.5C634.167 198.167 639.1 203.5 649.5 203.5V208.5H601ZM651 130.5H708.5L679.5 45L651 130.5Z" fill="white"/>
<path d="M829 193.5C829 202.337 821.837 209.5 813 209.5C804.163 209.5 797 202.337 797 193.5C797 184.663 804.163 177.5 813 177.5C821.837 177.5 829 184.663 829 193.5Z" fill="white"/>
<path d="M815 170C810.2 170 805.667 171.667 804 172.5C798.8 144.1 799.833 119.333 801 110.5C807 60.5 818.5 43 822.5 25C825.7 10.6 821.167 2.33333 818.5 0C821.167 0.166667 828 8.3 834 39.5C841.5 78.5 836 113 828 130.5C821.6 144.5 816.667 162.667 815 170Z" fill="white"/>
<path fill-rule="evenodd" clip-rule="evenodd" d="M699.817 378.866C700.835 379.883 702.106 380.392 703.632 380.392H759.701C761.354 380.392 762.625 379.883 763.515 378.866C764.532 377.849 765.041 376.641 765.041 375.242C765.041 373.844 764.596 372.573 763.706 371.428C762.816 370.284 761.481 369.712 759.701 369.712H709.734V369.5H697.147V374.098C697.147 375.751 698.037 377.34 699.817 378.866ZM697.147 359.5V282.747C697.147 280.331 698.419 278.424 700.962 277.026L703.25 276.263H757.603C759.51 276.263 760.909 276.835 761.799 277.979C762.689 279.124 763.134 280.395 763.134 281.794C763.134 283.065 762.625 284.273 761.608 285.417C760.591 286.561 759.256 287.133 757.603 287.133H709.734V321.652H755.315C757.222 321.652 758.62 322.225 759.51 323.369C760.4 324.386 760.845 325.594 760.845 326.992C760.845 328.264 760.337 329.408 759.32 330.425C758.302 331.442 756.967 331.951 755.315 331.951H709.734V359.5H697.147Z" fill="white"/>
<path fill-rule="evenodd" clip-rule="evenodd" d="M600.722 276.835C597.925 278.234 596.526 280.204 596.526 282.747V332.5L609.495 332.5V331.951H634.097C641.598 332.205 646.62 333.286 649.163 335.193C650.689 336.337 651.896 337.926 652.786 339.961C653.676 341.995 654.376 344.601 654.884 347.78C655.393 350.831 655.838 354.646 656.219 359.223C656.601 363.673 657.046 368.822 657.554 374.67C657.809 376.577 658.571 378.04 659.843 379.057C661.114 379.947 662.576 380.392 664.229 380.392C665.882 380.392 667.344 379.883 668.616 378.866C670.014 377.849 670.713 376.26 670.713 374.098C670.332 368.758 669.951 363.863 669.569 359.413C669.188 356.362 668.679 352.166 668.043 346.826C667.535 341.486 666.2 337.227 664.038 334.049C661.241 330.234 656.537 327.755 649.926 326.611V326.039C656.791 324.64 662.068 321.97 665.755 318.029C669.442 314.087 671.286 309.32 671.286 303.725C671.286 298.004 670.268 293.3 668.234 289.613C662.386 280.713 651.07 276.263 634.287 276.263H603.201C602.311 276.263 601.485 276.454 600.722 276.835ZM609.495 342.5H596.526V374.098C596.526 376.26 597.226 377.849 598.624 378.866C600.023 379.883 601.294 380.392 602.438 380.392C603.71 380.392 604.727 380.265 605.49 380.01C608.16 379.12 609.495 377.15 609.495 374.098V342.5ZM652.977 316.312C648.781 320.127 640.644 322.034 628.566 322.034H609.495V286.561H633.143C634.923 286.561 637.339 286.688 640.39 286.943C643.442 287.07 646.493 287.896 649.544 289.422C655.139 291.838 657.936 296.796 657.936 304.298C657.681 309.638 656.029 313.642 652.977 316.312Z" fill="white"/>
<path fill-rule="evenodd" clip-rule="evenodd" d="M494.451 278.551C493.434 279.314 492.926 280.649 492.926 282.556V344.156C492.926 356.362 496.994 365.961 505.131 372.954C511.598 378.105 519.53 381.036 528.926 381.747V370.944C523.424 370.221 518.671 368.157 514.667 364.753C508.946 359.668 506.085 352.802 506.085 344.156V282.556C506.085 280.395 505.386 278.806 503.987 277.789C502.716 276.771 501.19 276.263 499.41 276.263C497.757 276.263 496.104 277.026 494.451 278.551ZM538.926 370.847V381.74C548.087 381.012 555.766 378.083 561.964 372.954C570.101 365.961 574.169 356.362 574.169 344.156V282.556C574.169 280.395 573.47 278.806 572.071 277.789C570.8 276.771 569.274 276.263 567.494 276.263C565.841 276.263 564.252 277.026 562.726 278.551C561.582 279.314 561.01 280.649 561.01 282.556V344.156C561.01 353.056 558.149 359.922 552.428 364.753C548.687 368.015 544.186 370.046 538.926 370.847Z" fill="white"/>
<path fill-rule="evenodd" clip-rule="evenodd" d="M392.782 285.417C393.672 286.561 395.07 287.133 396.977 287.133H425.394V287.5H438.362V287.133H466.587C468.24 287.133 469.512 286.561 470.402 285.417C471.419 284.273 471.927 283.065 471.927 281.794C471.927 280.395 471.482 279.124 470.592 277.979C469.702 276.835 468.367 276.263 466.587 276.263H396.977C395.07 276.263 393.672 276.835 392.782 277.979C391.892 279.124 391.447 280.395 391.447 281.794C391.447 283.065 391.892 284.273 392.782 285.417ZM438.362 297.5L425.394 297.5V374.098C425.394 376.26 426.093 377.849 427.491 378.866C428.89 379.883 430.225 380.392 431.496 380.392C432.768 380.392 433.785 380.265 434.548 380.01C437.091 378.993 438.362 377.022 438.362 374.098V297.5Z" fill="white"/>
<path fill-rule="evenodd" clip-rule="evenodd" d="M217.926 275.712C204.951 276.768 194.607 281.719 186.894 290.566C182.571 295.27 179.329 300.928 177.168 307.54C175.006 314.151 173.926 321.144 173.926 328.518C173.926 336.019 175.006 343.139 177.168 349.878C179.329 356.489 182.571 362.21 186.894 367.042C194.501 375.897 204.845 380.799 217.926 381.747V371.334C213.826 370.847 210.221 369.734 207.11 367.995C202.787 365.58 199.163 362.401 196.239 358.46C193.315 354.391 191.217 349.687 189.946 344.347C188.801 339.007 188.229 333.858 188.229 328.899C188.229 323.814 188.801 318.664 189.946 313.452C191.217 308.112 193.315 303.471 196.239 299.53C199.163 295.461 202.787 292.219 207.11 289.803C210.221 288.065 213.826 286.952 217.926 286.464V275.712ZM227.926 371.339C232.068 370.854 235.745 369.74 238.959 367.995C243.409 365.58 247.032 362.401 249.829 358.46C252.626 354.391 254.661 349.687 255.932 344.347C257.331 339.007 258.03 333.858 258.03 328.899C258.03 323.814 257.331 318.664 255.932 313.452C254.661 308.112 252.626 303.471 249.829 299.53C247.032 295.461 243.409 292.219 238.959 289.803C235.745 288.059 232.068 286.944 227.926 286.46V275.696C240.986 276.711 251.402 281.668 259.174 290.566C263.37 295.27 266.485 300.928 268.519 307.54C270.68 314.151 271.761 321.144 271.761 328.518C271.761 336.019 270.68 343.203 268.519 350.068C266.485 356.807 263.37 362.465 259.174 367.042C251.402 375.827 240.986 380.721 227.926 381.724V371.339Z" fill="white"/>
<path fill-rule="evenodd" clip-rule="evenodd" d="M73.1367 323.5H86.8866C87.3087 318.61 88.3129 313.926 89.8992 309.447C90.9163 306.141 92.3149 303.153 94.0949 300.483C95.8748 297.813 98.0362 295.461 100.579 293.427C103.122 291.393 106.11 289.803 109.543 288.659C112.975 287.515 117.235 286.943 122.32 286.943C127.533 286.943 134.526 288.468 143.299 291.52C143.807 291.647 144.379 291.711 145.015 291.711C148.066 291.583 149.592 289.613 149.592 285.798C149.592 283.764 148.511 282.302 146.35 281.412C137.959 277.471 129.313 275.5 120.413 275.5C104.902 275.5 92.9506 280.84 84.5592 291.52C80.6179 296.351 77.6936 302.136 75.7865 308.875C74.3972 313.783 73.5139 318.659 73.1367 323.5ZM86.7457 332.5H73C73.5699 346.118 77.423 357.314 84.5592 366.088C92.8234 376.641 104.775 381.917 120.413 381.917C124.736 381.917 129.313 381.282 134.144 380.01C136.433 379.502 138.594 378.866 140.629 378.103C142.79 377.34 144.697 376.514 146.35 375.624C148.13 374.607 149.529 373.526 150.546 372.382C151.563 371.11 152.071 369.775 152.071 368.377C152.071 366.978 151.626 365.834 150.736 364.944C149.974 364.054 149.084 363.609 148.066 363.609C147.176 363.609 146.223 363.736 145.206 363.99C137.577 368.44 129.567 370.665 121.176 370.665C108.97 370.665 99.9434 366.152 94.0949 357.125C89.6776 350.329 87.2279 342.121 86.7457 332.5Z" fill="white"/>
<path fill-rule="evenodd" clip-rule="evenodd" d="M296.451 278.551C295.434 279.314 294.926 280.649 294.926 282.556V344.156C294.926 356.362 298.994 365.961 307.131 372.954C313.598 378.105 321.53 381.036 330.926 381.747V370.944C325.424 370.221 320.671 368.157 316.667 364.753C310.946 359.668 308.085 352.802 308.085 344.156V282.556C308.085 280.395 307.386 278.806 305.987 277.789C304.716 276.771 303.19 276.263 301.41 276.263C299.757 276.263 298.104 277.026 296.451 278.551ZM340.926 370.847V381.74C350.087 381.012 357.766 378.083 363.964 372.954C372.101 365.961 376.169 356.362 376.169 344.156V282.556C376.169 280.395 375.47 278.806 374.071 277.789C372.8 276.771 371.274 276.263 369.494 276.263C367.841 276.263 366.252 277.026 364.726 278.551C363.582 279.314 363.01 280.649 363.01 282.556V344.156C363.01 353.056 360.149 359.922 354.428 364.753C350.687 368.015 346.186 370.046 340.926 370.847Z" fill="white"/>
</svg>
